<svg width="22" height="22" viewBox="0 0 22 22" fill="none" xmlns="http://www.w3.org/2000/svg">
    <path
        d="M16.6892 6.89333C15.6485 6.01333 14.3997 5.57333 13.0814 5.5L12.8733 5.72C14.0528 6.01333 15.0935 6.6 16.0648 7.40667C14.8853 6.74667 13.5671 6.30667 12.1795 6.16C11.7632 6.08667 11.4163 6.08667 11 6.08667C10.5837 6.08667 10.2368 6.08667 9.82053 6.16C8.43291 6.30667 7.11468 6.74667 5.93521 7.40667C6.90654 6.6 7.94725 6.01333 9.12672 5.72L8.91858 5.5C7.60034 5.57333 6.35149 6.01333 5.31078 6.89333C4.13131 9.24 3.50688 11.88 3.4375 14.5933C4.47821 15.7667 5.93521 16.5 7.46158 16.5C7.46158 16.5 7.94725 15.9133 8.29415 15.4C7.3922 15.18 6.55963 14.6667 6.00459 13.86C6.49025 14.1533 6.97592 14.4467 7.46158 14.6667C8.08601 14.96 8.71044 15.1067 9.33486 15.2533C9.88991 15.3267 10.445 15.4 11 15.4C11.555 15.4 12.1101 15.3267 12.6651 15.2533C13.2896 15.1067 13.914 14.96 14.5384 14.6667C15.0241 14.4467 15.5097 14.1533 15.9954 13.86C15.4404 14.6667 14.6078 15.18 13.7058 15.4C14.0528 15.9133 14.5384 16.5 14.5384 16.5C16.0648 16.5 17.5218 15.7667 18.5625 14.5933C18.4931 11.88 17.8687 9.24 16.6892 6.89333ZM8.71044 13.2733C8.01663 13.2733 7.3922 12.6133 7.3922 11.8067C7.3922 11 8.01663 10.34 8.71044 10.34C9.40424 10.34 10.0287 11 10.0287 11.8067C10.0287 12.6133 9.40424 13.2733 8.71044 13.2733ZM13.2896 13.2733C12.5958 13.2733 11.9713 12.6133 11.9713 11.8067C11.9713 11 12.5958 10.34 13.2896 10.34C13.9834 10.34 14.6078 11 14.6078 11.8067C14.6078 12.6133 13.9834 13.2733 13.2896 13.2733Z"
        fill="#F5F5F6" />
</svg>