<svg width="71" height="68" viewBox="0 0 71 68" fill="none" xmlns="http://www.w3.org/2000/svg">
    <mask id="mask0_1137_29697" style="mask-type:luminance" maskUnits="userSpaceOnUse" x="5" y="0" width="11"
        height="10">
        <path d="M5.66638 0H15.0603V9.31813H5.66638V0Z" fill="white" />
    </mask>
    <g mask="url(#mask0_1137_29697)">
        <path
            d="M6.65102 9.27706C7.19316 9.27706 7.63232 8.8379 7.63232 8.29695V4.04153C7.63232 3.47098 7.86432 2.95607 8.24548 2.57492C8.62781 2.19495 9.14391 1.96294 9.71682 1.96294H10.968C11.5409 1.96294 12.057 2.19495 12.4393 2.57492C12.8205 2.95607 13.0525 3.47098 13.0525 4.04153V5.34479C13.0525 5.88574 13.4928 6.32371 14.035 6.32371C14.5771 6.32371 15.0163 5.88574 15.0163 5.34479V4.04153C15.0175 2.93121 14.5594 1.91678 13.8278 1.1888C13.0987 0.460817 12.0831 0.00390625 10.968 0.00390625H9.71682C8.60296 0.00390625 7.58615 0.460817 6.85699 1.1888C6.12664 1.91678 5.66855 2.93121 5.66855 4.04153V8.29695C5.66855 8.8379 6.1077 9.27706 6.65102 9.27706Z"
            fill="#528BFF" />
    </g>
    <mask id="mask1_1137_29697" style="mask-type:luminance" maskUnits="userSpaceOnUse" x="17" y="0" width="3"
        height="6">
        <path d="M17.7877 0H19.9089V5.98482H17.7877V0Z" fill="white" />
    </mask>
    <g mask="url(#mask1_1137_29697)">
        <path
            d="M18.8198 5.87035C19.3631 5.87035 19.8023 5.4312 19.8023 4.89024V0.982831C19.8023 0.441878 19.3619 0.00390625 18.8198 0.00390625C18.2777 0.00390625 17.8385 0.441878 17.8385 0.982831V4.89024C17.8385 5.4312 18.2777 5.87035 18.8198 5.87035Z"
            fill="#528BFF" />
    </g>
    <mask id="mask2_1137_29697" style="mask-type:luminance" maskUnits="userSpaceOnUse" x="22" y="0" width="11"
        height="10">
        <path d="M22.3328 0H32.0297V9.31813H22.3328V0Z" fill="white" />
    </mask>
    <g mask="url(#mask2_1137_29697)">
        <path
            d="M23.6055 6.32371C24.1476 6.32371 24.5868 5.88574 24.5868 5.34479V4.04153C24.588 3.47098 24.82 2.95607 25.1999 2.57492C25.5823 2.19495 26.0996 1.96294 26.6713 1.96294H27.9237C28.4954 1.96294 29.0127 2.19495 29.395 2.57492C29.775 2.95607 30.007 3.47098 30.0082 4.04153V8.28275C30.0082 8.8237 30.4473 9.26167 30.9895 9.26167C31.5316 9.26167 31.9719 8.8237 31.9719 8.28275V4.04153C31.9719 2.93121 31.5138 1.91677 30.7835 1.18998C30.0543 0.460817 29.0375 0.00390625 27.9237 0.00390625H26.6713C25.5574 0.00390625 24.5406 0.460817 23.8115 1.18998C23.0811 1.91677 22.623 2.93121 22.623 4.04153V5.34479C22.623 5.88574 23.0634 6.32371 23.6055 6.32371Z"
            fill="#528BFF" />
    </g>
    <mask id="mask3_1137_29697" style="mask-type:luminance" maskUnits="userSpaceOnUse" x="34" y="0" width="3"
        height="16">
        <path d="M34.7573 0H36.8785V15.0757H34.7573V0Z" fill="white" />
    </mask>
    <g mask="url(#mask3_1137_29697)">
        <path
            d="M35.7757 15.0571C36.3179 15.0571 36.757 14.6191 36.757 14.0782V0.982831C36.757 0.441878 36.3179 0.00390625 35.7757 0.00390625C35.2336 0.00390625 34.7933 0.441878 34.7933 0.982831V14.0782C34.7933 14.6191 35.2336 15.0571 35.7757 15.0571Z"
            fill="#528BFF" />
    </g>
    <mask id="mask4_1137_29697" style="mask-type:luminance" maskUnits="userSpaceOnUse" x="39" y="0" width="10"
        height="16">
        <path d="M39.3028 0H48.9997V15.0757H39.3028V0Z" fill="white" />
    </mask>
    <g mask="url(#mask4_1137_29697)">
        <path
            d="M43.1779 15.0571H45.3251C46.3159 15.0571 47.2214 14.6511 47.8689 14.0036C48.5188 13.3561 48.926 12.4541 48.926 11.4657V3.59527C48.926 2.60688 48.5188 1.70489 47.8689 1.05859C47.2214 0.409917 46.3159 0.00390625 45.3251 0.00390625H43.1779C42.1871 0.00390625 41.2828 0.409917 40.6341 1.05859C39.9855 1.70489 39.5771 2.60688 39.5771 3.59527V11.4657C39.5771 12.4541 39.9855 13.3573 40.6341 14.0036C41.2828 14.6511 42.1871 15.0571 43.1779 15.0571ZM41.542 3.59527C41.542 3.14665 41.7231 2.743 42.0226 2.44352C42.3245 2.14405 42.7281 1.96294 43.1779 1.96294H45.3263C45.775 1.96294 46.1798 2.14405 46.4804 2.44352C46.7799 2.743 46.9622 3.14665 46.9622 3.59527V11.4657C46.9622 11.9144 46.7799 12.318 46.4804 12.6187C46.1798 12.917 45.775 13.0981 45.3263 13.0981H43.1779C42.7293 13.0981 42.3245 12.917 42.0226 12.6187C41.7231 12.318 41.542 11.9144 41.542 11.4657V3.59527Z"
            fill="#528BFF" />
    </g>
    <mask id="mask5_1137_29697" style="mask-type:luminance" maskUnits="userSpaceOnUse" x="51" y="0" width="3"
        height="16">
        <path d="M51.7269 0H53.8481V15.0757H51.7269V0Z" fill="white" />
    </mask>
    <g mask="url(#mask5_1137_29697)">
        <path
            d="M52.7294 15.0571C53.2715 15.0571 53.7107 14.6191 53.7107 14.0782V0.982831C53.7107 0.441878 53.2715 0.00390625 52.7294 0.00390625C52.1872 0.00390625 51.7469 0.441878 51.7469 0.982831V14.0782C51.7469 14.6191 52.1872 15.0571 52.7294 15.0571Z"
            fill="#528BFF" />
    </g>
    <mask id="mask6_1137_29697" style="mask-type:luminance" maskUnits="userSpaceOnUse" x="56" y="0" width="10"
        height="16">
        <path d="M56.272 0H65.969V15.0757H56.272V0Z" fill="white" />
    </mask>
    <g mask="url(#mask6_1137_29697)">
        <path
            d="M60.1322 15.0571H62.2806C63.2714 15.0571 64.1757 14.6511 64.8232 14.0036C65.4731 13.3561 65.8803 12.4541 65.8803 11.4657V3.59527C65.8803 2.60688 65.4731 1.70489 64.8232 1.05859C64.1757 0.409917 63.2714 0.00390625 62.2806 0.00390625H60.1322C59.1414 0.00390625 58.2371 0.409917 57.5884 1.05859C56.9397 1.70489 56.5325 2.60688 56.5325 3.59527V11.4657C56.5314 12.4541 56.9397 13.3573 57.5884 14.0036C58.2371 14.6511 59.1414 15.0571 60.1322 15.0571ZM58.4963 3.59527C58.4963 3.14665 58.6774 2.743 58.9769 2.44352C59.2787 2.14405 59.6836 1.96294 60.1322 1.96294H62.2806C62.7293 1.96294 63.1341 2.14405 63.4347 2.44352C63.7342 2.743 63.9165 3.14665 63.9165 3.59527V11.4657C63.9165 11.9144 63.7342 12.318 63.4347 12.6187C63.1341 12.917 62.7293 13.0981 62.2806 13.0981H60.1322C59.6836 13.0981 59.2787 12.917 58.9769 12.6187C58.6774 12.318 58.4963 11.9144 58.4963 11.4657V3.59527Z"
            fill="#528BFF" />
    </g>
    <mask id="mask7_1137_29697" style="mask-type:luminance" maskUnits="userSpaceOnUse" x="68" y="0" width="3"
        height="16">
        <path d="M68.6965 0H70.6662V15.0757H68.6965V0Z" fill="white" />
    </mask>
    <g mask="url(#mask7_1137_29697)">
        <path
            d="M69.6833 0.00390625C69.1411 0.00390625 68.702 0.441878 68.702 0.982831V14.0782C68.702 14.6191 69.1411 15.0571 69.6833 15.0571C70.2254 15.0571 70.6657 14.6191 70.6657 14.0782V0.982831C70.6657 0.441878 70.2254 0.00390625 69.6833 0.00390625Z"
            fill="#528BFF" />
    </g>
    <path
        d="M6.65167 39.8867C6.10834 39.8867 5.66919 40.3247 5.66919 40.8656V46.7274C5.66919 47.8389 6.12728 48.8521 6.85763 49.5801C7.58679 50.3093 8.6036 50.765 9.71746 50.765H10.9686C12.0837 50.765 13.0993 50.3093 13.8297 49.5801C14.56 48.8521 15.0181 47.8389 15.0169 46.7274V43.9539C15.0169 43.413 14.5778 42.975 14.0356 42.975C13.4935 42.975 13.0543 43.413 13.0543 43.9539V46.7274C13.0531 47.2979 12.8211 47.814 12.44 48.1952C12.0588 48.5751 11.5416 48.8059 10.9698 48.8059H9.71746C9.14455 48.8059 8.62845 48.5751 8.24612 48.1952C7.86496 47.814 7.63296 47.2979 7.63296 46.7274V40.8656C7.63296 40.3247 7.1938 39.8867 6.65167 39.8867Z"
        fill="#528BFF" />
    <path
        d="M23.6056 42.7925C23.0635 42.7925 22.6231 43.2316 22.6231 43.7726V46.7271C22.6231 47.8386 23.0812 48.8518 23.8116 49.5798C24.5407 50.3078 25.5575 50.7647 26.6714 50.7647H27.9238C29.0376 50.7647 30.0544 50.3078 30.7836 49.5798C31.514 48.8518 31.972 47.8386 31.972 46.7271V41.1069C31.972 40.5671 31.5317 40.1279 30.9896 40.1279C30.4474 40.1279 30.0083 40.5671 30.0083 41.1069V46.7271C30.0071 47.2976 29.7751 47.8126 29.3951 48.1949C29.0128 48.5749 28.4967 48.8057 27.9238 48.8057H26.6714C26.0997 48.8057 25.5824 48.5737 25.2013 48.1949C24.8201 47.8126 24.5881 47.2976 24.5869 46.7271V43.7726C24.5869 43.2316 24.1478 42.7925 23.6056 42.7925Z"
        fill="#528BFF" />
    <path
        d="M34.7927 36.6908V49.7862C34.7927 50.3271 35.233 50.7651 35.7752 50.7651C36.3173 50.7651 36.7565 50.3271 36.7565 49.7862V36.6908C36.7565 36.1499 36.3173 35.7119 35.7752 35.7119C35.233 35.7119 34.7927 36.1499 34.7927 36.6908Z"
        fill="#528BFF" />
    <path
        d="M43.1779 50.7651H45.3251C46.3159 50.7651 47.2214 50.3591 47.8689 49.7116C48.5188 49.0653 48.926 48.1621 48.926 47.1737V39.3033C48.926 38.3149 48.5188 37.4129 47.8689 36.7666C47.2214 36.1179 46.3159 35.7119 45.3251 35.7119H43.1779C42.1871 35.7119 41.2828 36.1179 40.6341 36.7666C39.9854 37.4129 39.5771 38.3149 39.5771 39.3033V47.1737C39.5771 48.1621 39.9854 49.0653 40.6341 49.7116C41.2828 50.3591 42.1871 50.7651 43.1779 50.7651ZM41.542 39.3033C41.542 38.8547 41.7231 38.451 42.0226 38.1515C42.3244 37.8521 42.7281 37.6709 43.1779 37.6709H45.3263C45.7749 37.6709 46.1798 37.8521 46.4804 38.1515C46.7799 38.451 46.9622 38.8547 46.9622 39.3033V47.1737C46.9622 47.6224 46.7799 48.026 46.4804 48.3267C46.1798 48.625 45.7749 48.8061 45.3263 48.8061H43.1779C42.7293 48.8061 42.3244 48.625 42.0226 48.3267C41.7231 48.026 41.542 47.6224 41.542 47.1737V39.3033Z"
        fill="#528BFF" />
    <path
        d="M52.7295 35.7119C52.1874 35.7119 51.747 36.1499 51.747 36.6908V49.7862C51.747 50.3271 52.1874 50.7651 52.7295 50.7651C53.2717 50.7651 53.7108 50.3271 53.7108 49.7862V36.6908C53.7108 36.1499 53.2717 35.7119 52.7295 35.7119Z"
        fill="#528BFF" />
    <path
        d="M60.1327 50.7651H62.2811C63.2718 50.7651 64.1762 50.3591 64.8237 49.7116C65.4735 49.0653 65.8807 48.1621 65.8807 47.1737V39.3033C65.8807 38.3149 65.4735 37.4129 64.8237 36.7666C64.1762 36.1179 63.2718 35.7119 62.2811 35.7119H60.1327C59.1419 35.7119 58.2375 36.1179 57.5889 36.7666C56.9402 37.4129 56.533 38.3149 56.533 39.3033V47.1737C56.5318 48.1621 56.9402 49.0653 57.5889 49.7116C58.2375 50.3591 59.1419 50.7651 60.1327 50.7651ZM58.4968 39.3033C58.4968 38.8547 58.6779 38.451 58.9774 38.1515C59.2792 37.8521 59.684 37.6709 60.1327 37.6709H62.2811C62.7297 37.6709 63.1345 37.8521 63.4352 38.1515C63.7347 38.451 63.917 38.8547 63.917 39.3033V47.1737C63.917 47.6224 63.7347 48.026 63.4352 48.3267C63.1345 48.625 62.7297 48.8061 62.2811 48.8061H60.1327C59.684 48.8061 59.2792 48.625 58.9774 48.3267C58.6779 48.026 58.4968 47.6224 58.4968 47.1737V39.3033Z"
        fill="#528BFF" />
    <mask id="mask8_1137_29697" style="mask-type:luminance" maskUnits="userSpaceOnUse" x="68" y="35" width="3"
        height="16">
        <path d="M68.6973 35.6807H70.667V50.8321H68.6973V35.6807Z" fill="white" />
    </mask>
    <g mask="url(#mask8_1137_29697)">
        <path
            d="M69.6841 35.7109C69.1419 35.7109 68.7028 36.1489 68.7028 36.6899V49.7852C68.7028 50.3262 69.1419 50.7641 69.6841 50.7641C70.2262 50.7641 70.6665 50.3262 70.6665 49.7852V36.6899C70.6665 36.1489 70.2262 35.7109 69.6841 35.7109Z"
            fill="#528BFF" />
    </g>
    <mask id="mask9_1137_29697" style="mask-type:luminance" maskUnits="userSpaceOnUse" x="61" y="17" width="10"
        height="17">
        <path d="M61.1209 17.8037H70.6663V33.2582H61.1209V17.8037Z" fill="white" />
    </mask>
    <g mask="url(#mask9_1137_29697)">
        <path
            d="M62.3748 19.1318C61.7249 19.7781 61.3177 20.6801 61.3177 21.6685V29.5402C61.3177 30.5286 61.7249 31.4305 62.3748 32.0768C63.0223 32.7243 63.9278 33.1315 64.9186 33.1315H67.0658C68.0566 33.1315 68.9609 32.7243 69.6096 32.0768C70.2583 31.4305 70.6667 30.5286 70.6667 29.5402V21.6685C70.6667 20.6801 70.2583 19.7781 69.6096 19.1318C68.9609 18.4843 68.0566 18.0771 67.0658 18.0771H64.9186C63.9278 18.0771 63.0223 18.4843 62.3748 19.1318ZM68.2211 20.5168C68.5206 20.8174 68.7017 21.2211 68.7029 21.6685V29.5402C68.7017 29.9876 68.5206 30.3912 68.2211 30.6919C67.9193 30.9914 67.5156 31.1725 67.0658 31.1725H64.9186C64.4688 31.1713 64.0639 30.9902 63.7633 30.6919C63.4638 30.3912 63.2815 29.9876 63.2815 29.5402V21.6685C63.2815 21.2211 63.4638 20.8174 63.7633 20.5168C64.0639 20.2173 64.4688 20.0362 64.9186 20.0362H67.0658C67.5156 20.0362 67.9193 20.2173 68.2211 20.5168Z"
            fill="#528BFF" />
    </g>
    <path
        d="M57.5143 33.1303C58.0564 33.1303 58.4968 32.6912 58.4968 32.1502V19.0561C58.4968 18.5151 58.0564 18.0771 57.5143 18.0771C56.9722 18.0771 56.533 18.5151 56.533 19.0561V32.1502C56.533 32.6912 56.9722 33.1303 57.5143 33.1303Z"
        fill="#528BFF" />
    <path
        d="M45.4201 19.1309C44.7702 19.7772 44.363 20.6791 44.363 21.6675V29.5392C44.363 30.5276 44.7702 31.4296 45.4201 32.0759C46.0676 32.7234 46.9719 33.1305 47.9627 33.1305H50.1111C51.1019 33.1305 52.0062 32.7234 52.6549 32.0759C53.3036 31.4296 53.7107 30.5276 53.7107 29.5392V21.6675C53.7119 20.6791 53.3036 19.7772 52.6549 19.1309C52.0062 18.4834 51.1019 18.0762 50.1111 18.0762H47.9627C46.9719 18.0762 46.0676 18.4834 45.4201 19.1309ZM51.2652 20.5158C51.5659 20.8165 51.747 21.2201 51.747 21.6675V29.5392C51.747 29.9866 51.5659 30.3903 51.2652 30.6909C50.9646 30.9904 50.5597 31.1715 50.1111 31.1715H47.9627C47.514 31.1703 47.1092 30.9892 46.8086 30.6909C46.5091 30.3903 46.3268 29.9866 46.3268 29.5392V21.6675C46.3268 21.2201 46.5091 20.8165 46.8086 20.5158C47.1092 20.2163 47.514 20.0352 47.9627 20.0352H50.1111C50.5597 20.0352 50.9646 20.2163 51.2652 20.5158Z"
        fill="#528BFF" />
    <path
        d="M40.56 33.1303C41.1021 33.1303 41.5424 32.6912 41.5424 32.1502V19.0561C41.5424 18.5151 41.1021 18.0771 40.56 18.0771C40.0178 18.0771 39.5787 18.5151 39.5787 19.0561V32.1502C39.5775 32.6912 40.0178 33.1303 40.56 33.1303Z"
        fill="#528BFF" />
    <mask id="mask10_1137_29697" style="mask-type:luminance" maskUnits="userSpaceOnUse" x="0" y="6" width="38"
        height="62">
        <path d="M0.666504 6.28809H37.1815V67.7272H0.666504V6.28809Z" fill="white" />
    </mask>
    <g mask="url(#mask10_1137_29697)">
        <path
            d="M17.8385 42.7381V51.3933H16.4536C16.1944 51.3933 15.941 51.4975 15.7588 51.6798C15.5753 51.8621 15.4711 52.1142 15.4711 52.3723V66.7448C15.4711 67.0029 15.5753 67.255 15.7588 67.4373C15.941 67.6196 16.1944 67.7249 16.4536 67.7249H21.1872C21.4465 67.7249 21.6986 67.6196 21.8821 67.4373C22.0644 67.255 22.1697 67.0029 22.1697 66.7448V52.3723C22.1697 52.1142 22.0644 51.8621 21.8821 51.6798C21.6986 51.4975 21.4465 51.3933 21.1872 51.3933H19.8023V42.7381C24.4223 42.493 28.5913 40.5222 31.6571 37.4623C34.9407 34.1882 36.9743 29.6546 36.9743 24.6581C36.9743 19.6605 34.9407 15.1269 31.6571 11.854C28.3747 8.57868 23.8304 6.5498 18.821 6.5498C13.8104 6.5498 9.26613 8.57868 5.98371 11.854C2.70011 15.1269 0.666504 19.6605 0.666504 24.6581C0.666504 29.6546 2.70011 34.1882 5.98371 37.4623C9.04951 40.5222 13.2185 42.493 17.8385 42.7381ZM18.8198 8.50884C23.2942 8.50884 27.3354 10.3152 30.2686 13.2389C33.1995 16.1639 35.0094 20.1956 35.0106 24.6581C35.0094 29.1207 33.1995 33.1512 30.2686 36.0762C27.3354 39.0011 23.2942 40.8063 18.8198 40.8063C14.3466 40.8063 10.3054 39.0011 7.3722 36.0762C4.44134 33.1512 2.63027 29.1195 2.63027 24.6581C2.63027 20.1956 4.44134 16.1639 7.3722 13.2389C10.3054 10.3152 14.3466 8.50884 18.8198 8.50884ZM20.2059 65.7659H17.4349V53.3524H20.2059V65.7659Z"
            fill="#528BFF" />
    </g>
    <path
        d="M9.52097 33.9334C11.8979 36.3055 15.1921 37.7757 18.8202 37.7757C22.4494 37.7757 25.7437 36.3055 28.1205 33.9334C30.4986 31.5624 31.9723 28.2765 31.9723 24.6579C31.9723 21.0381 30.4986 17.7521 28.1205 15.3823C25.7437 13.009 22.4494 11.5389 18.8202 11.54C15.1921 11.5389 11.8979 13.009 9.52097 15.3823C7.1429 17.7521 5.66919 21.0381 5.66919 24.6579C5.66919 28.2765 7.1429 31.5624 9.52097 33.9334ZM10.9095 16.7673C12.9371 14.7455 15.7283 13.4991 18.8202 13.4979C21.9132 13.4991 24.7044 14.7455 26.7309 16.7673C28.7574 18.7891 30.0074 21.5731 30.0086 24.6579C30.0074 27.7426 28.7574 30.5255 26.7309 32.5485C24.7032 34.569 21.9132 35.8167 18.8202 35.8167C15.7283 35.8167 12.9371 34.569 10.9095 32.5485C8.88414 30.5255 7.63296 27.7426 7.63296 24.6579C7.63296 21.5731 8.88414 18.7891 10.9095 16.7673Z"
        fill="#528BFF" />
</svg>