<svg width="71" height="67" viewBox="0 0 71 67" fill="none" xmlns="http://www.w3.org/2000/svg">
    <path
        d="M35.3336 29.2227C32.1258 29.2227 29.5145 31.8221 29.5145 35.0157C29.5145 38.2094 32.1258 40.8088 35.3336 40.8088C38.5415 40.8088 41.1528 38.2094 41.1528 35.0157C41.1528 31.8221 38.5415 29.2227 35.3336 29.2227ZM35.3336 38.4059C33.4563 38.4059 31.9281 36.8848 31.9281 35.0157C31.9281 33.1467 33.4563 31.6256 35.3336 31.6256C37.211 31.6256 38.7392 33.1467 38.7392 35.0157C38.7392 36.8848 37.211 38.4059 35.3336 38.4059Z"
        fill="#528BFF" />
    <mask id="mask0_1137_29767" style="mask-type:luminance" maskUnits="userSpaceOnUse" x="0" y="0" width="71"
        height="67">
        <path d="M0.333496 0H70.3335V66.6667H0.333496V0Z" fill="white" />
    </mask>
    <g mask="url(#mask0_1137_29767)">
        <path
            d="M64.5147 48.6587C63.2031 48.6587 62.0064 49.1085 61.0334 49.8388L46.7732 40.5325C47.5935 38.8587 48.093 37.0015 48.093 35.014C48.093 31.1646 46.3257 27.7508 43.6008 25.42L53.1936 11.4866C53.7239 11.6452 54.2767 11.7576 54.8591 11.7576C58.067 11.7576 60.6783 9.1582 60.6783 5.96455C60.6783 2.77208 58.067 0.173828 54.8591 0.173828C51.6513 0.173828 49.0412 2.77444 49.0412 5.96692C49.0412 7.71408 49.8378 9.26119 51.0689 10.3253L41.6311 24.0363C39.7656 22.9709 37.6361 22.3152 35.3362 22.3152C32.0703 22.3152 29.1181 23.5794 26.8584 25.5952L20.3007 18.783C21.1162 17.7863 21.6264 16.5315 21.6264 15.1478C21.6264 11.9553 19.014 9.3547 15.8061 9.3547C12.5982 9.3547 9.98934 11.9553 9.98934 15.1478C9.98934 18.3438 12.6006 20.9409 15.8085 20.9409C16.7519 20.9409 17.6314 20.6958 18.4174 20.2969L25.2178 27.3637C23.5831 29.4967 22.5746 32.1305 22.5746 35.014C22.5746 36.9991 23.0741 38.8564 23.8944 40.5301L10.4036 49.2375C9.33948 48.0964 7.8338 47.3684 6.15056 47.3684C2.9427 47.3684 0.331429 49.9691 0.331429 53.1615C0.331429 56.3552 2.9427 58.9546 6.15056 58.9546C9.35842 58.9546 11.9709 56.3552 11.9709 53.1615C11.9709 52.5081 11.8383 51.8926 11.6371 51.3066L25.1503 42.5827C26.9626 44.9904 29.5821 46.7565 32.6349 47.4146L32.2585 55.0353C29.3833 55.3869 27.1413 57.804 27.1413 60.7562C27.1413 63.9499 29.7526 66.5493 32.9605 66.5493C36.1695 66.5493 38.7808 63.9499 38.7808 60.7562C38.7808 58.1568 37.0407 55.9776 34.665 55.2472L35.0391 47.6833C35.1385 47.6857 35.232 47.7129 35.3314 47.7129C39.5076 47.7129 43.1854 45.6769 45.5149 42.5851L59.4377 51.6724C58.9796 52.501 58.692 53.4385 58.692 54.4494C58.692 57.6431 61.3009 60.2425 64.5088 60.2425C67.7178 60.2425 70.3291 57.6431 70.3291 54.4494C70.3291 51.2569 67.7225 48.6587 64.5147 48.6587ZM54.8591 2.57676C56.7365 2.57676 58.2647 4.09783 58.2647 5.96692C58.2647 7.836 56.7365 9.35707 54.8591 9.35707C52.9829 9.35707 51.456 7.836 51.456 5.96692C51.456 4.09783 52.9829 2.57676 54.8591 2.57676ZM6.15293 56.5517C4.27556 56.5517 2.74739 55.0306 2.74739 53.1615C2.74739 51.2924 4.27556 49.7714 6.15293 49.7714C8.03148 49.7714 9.55965 51.2924 9.55965 53.1615C9.55965 55.0306 8.02911 56.5517 6.15293 56.5517ZM36.3695 60.7562C36.3695 62.6265 34.8414 64.1476 32.964 64.1476C31.0855 64.1476 29.5573 62.6265 29.5573 60.7562C29.5573 58.8871 31.0855 57.3661 32.964 57.3661C34.8414 57.3684 36.3695 58.8895 36.3695 60.7562ZM12.4029 15.1478C12.4029 13.2787 13.9311 11.7576 15.8085 11.7576C17.687 11.7576 19.214 13.2787 19.214 15.1478C19.214 17.0169 17.687 18.5379 15.8085 18.5379C13.9311 18.5379 12.4029 17.0169 12.4029 15.1478ZM35.3338 45.3123C29.6295 45.3123 24.9882 40.6935 24.9882 35.014C24.9882 29.3334 29.6271 24.7157 35.3338 24.7157C41.0405 24.7157 45.6794 29.3334 45.6794 35.014C45.6794 40.6935 41.0381 45.3123 35.3338 45.3123ZM64.5147 57.8396C62.6385 57.8396 61.1103 56.3185 61.1103 54.4494C61.1103 52.5803 62.6385 51.0592 64.5147 51.0592C66.392 51.0592 67.9202 52.5803 67.9202 54.4494C67.9202 56.3185 66.392 57.8396 64.5147 57.8396Z"
            fill="#528BFF" />
    </g>
</svg>