<svg width="70" height="70" viewBox="0 0 70 70" fill="none" xmlns="http://www.w3.org/2000/svg">
    <mask id="mask0_1137_29778" style="mask-type:luminance" maskUnits="userSpaceOnUse" x="0" y="12" width="42"
        height="42">
        <path d="M0 12.5762H41.3634V53.485H0V12.5762Z" fill="white" />
    </mask>
    <g mask="url(#mask0_1137_29778)">
        <path
            d="M32.5945 47.3609L29.4186 44.8444C29.0895 44.5153 28.5486 44.5153 28.1083 44.7331C26.7967 45.6091 25.2674 46.2672 23.7333 46.5903C23.2977 46.7028 22.9686 47.0319 22.8562 47.5787L22.4217 51.6246H19.0281L18.5936 47.4734C18.5936 47.0319 18.1521 46.5903 17.7177 46.485C16.1883 46.1559 14.6531 45.4966 13.3427 44.6266C12.9071 44.4029 12.4656 44.4029 12.0312 44.7331L8.86121 47.2497L6.45001 44.8444L8.96775 41.6756C9.29682 41.3453 9.29682 40.7985 9.07902 40.3581C8.20307 39.0466 7.54375 37.5172 7.2206 35.9832C7.10933 35.5476 6.78026 35.2185 6.23339 35.1131L2.18749 34.7829V31.3904L6.23339 30.9548C6.67373 30.9548 7.10933 30.5145 7.2206 30.0788C7.54375 28.5507 8.20307 27.0154 9.07902 25.7039C9.29682 25.2695 9.29682 24.8279 8.96775 24.3923L6.45001 21.2176L8.86121 18.8123L12.0312 21.3289C12.3602 21.658 12.9071 21.658 13.3427 21.4414C14.6531 20.5642 16.1883 19.9061 17.7177 19.577C18.158 19.4705 18.4812 19.1414 18.5936 18.5945L19.0281 14.5486H22.4217L22.8562 18.5945C22.8562 19.0301 23.2977 19.4705 23.7333 19.577C25.2674 19.9061 26.7967 20.5642 28.1083 21.4414C28.5486 21.658 28.9842 21.658 29.4186 21.3289L32.5945 18.8123L34.9998 21.2176L32.4832 24.3923C32.1601 24.7226 32.1601 25.2695 32.3767 25.7039C33.2538 27.0154 33.906 28.5507 34.2351 30.0788C34.3476 30.5145 34.6707 30.8435 35.2176 30.9548L39.2623 31.3904V34.7829L35.2176 35.2185C34.782 35.2185 34.3476 35.66 34.2351 36.0944C33.906 37.6297 33.2538 39.1579 32.3767 40.4694C32.1601 40.9109 32.1601 41.3453 32.4832 41.781L34.9998 44.9568L32.5945 47.3609ZM37.2926 44.4029L34.5583 41.0163C35.2176 39.8172 35.7645 38.611 36.0935 37.406L40.356 36.9704C40.9029 36.8591 41.3444 36.4235 41.3444 35.8766V30.5145C41.3444 29.9676 40.9029 29.532 40.356 29.4207L36.0935 28.9851C35.7645 27.6736 35.2176 26.4685 34.5583 25.3748L37.2926 21.9882C37.6217 21.5467 37.6217 20.8933 37.1873 20.5642L33.4645 16.8427C33.0301 16.4071 32.4832 16.4071 32.0476 16.7361L28.6551 19.4705C27.4548 18.8123 26.2498 18.2655 25.0436 17.9364L24.6092 13.6727C24.4968 13.1258 24.0624 12.6914 23.5155 12.6914H18.1521C17.6112 12.6914 17.1708 13.1258 17.0584 13.6727L16.624 17.9364C15.3124 18.2655 14.1062 18.8123 13.0125 19.4705L9.62589 16.7361C9.18437 16.4071 8.53214 16.4071 8.20307 16.8427L4.48624 20.5642C4.0459 20.9998 4.0459 21.5467 4.37497 21.9882L6.78026 25.157C6.12686 26.3632 5.57998 27.5623 5.25091 28.7673L0.981291 29.2029C0.43442 29.3142 0 29.7498 0 30.2966V35.66C0 36.2069 0.43442 36.6413 0.981291 36.7467L5.25091 37.1882C5.57998 38.4997 6.12686 39.7047 6.78026 40.7985L4.0459 44.1922C3.71565 44.6266 3.71565 45.2859 4.15717 45.6091L7.874 49.3306C8.31434 49.7662 8.86121 49.7662 9.29682 49.4372L12.6893 46.7028C13.8896 47.3609 15.0946 47.9078 16.2937 48.2381L16.7352 52.5006C16.8406 53.0475 17.2821 53.4819 17.829 53.4819H23.1864C23.7333 53.4819 24.1736 53.0475 24.2802 52.5006L24.7146 48.2381C26.032 47.9078 27.2311 47.3609 28.3249 46.7028L31.7186 49.4372C32.153 49.7662 32.8123 49.7662 33.1414 49.3306L36.8582 45.6091C37.6217 45.4966 37.6217 44.8444 37.2926 44.4029Z"
            fill="#528BFF" />
    </g>
    <path
        d="M20.7811 39.4874C17.1708 39.4874 14.2186 36.5352 14.2186 32.9249C14.2186 29.3134 17.1708 26.3624 20.7811 26.3624C24.3914 26.3624 27.3436 29.3134 27.3436 32.9249C27.3436 36.5352 24.3914 39.4874 20.7811 39.4874ZM20.7811 24.0625C15.9705 24.0625 12.0312 28.0031 12.0312 32.8124C12.0312 37.6289 15.9705 41.5624 20.7811 41.5624C25.5905 41.5624 29.531 37.6289 29.531 32.8124C29.531 27.996 25.5905 24.0625 20.7811 24.0625Z"
        fill="#528BFF" />
    <mask id="mask1_1137_29778" style="mask-type:luminance" maskUnits="userSpaceOnUse" x="34" y="34" width="36"
        height="36">
        <path d="M34.394 34.3936H69.9999V69.9994H34.394V34.3936Z" fill="white" />
    </mask>
    <g mask="url(#mask1_1137_29778)">
        <path
            d="M67.812 53.4812L64.5308 53.8114C64.0893 53.8114 63.6548 54.2518 63.5424 54.6874C63.2192 55.9989 62.7777 57.2039 62.0142 58.403C61.7964 58.8445 61.7964 59.2801 62.1255 59.7205L64.2017 62.3436L62.3433 64.202L59.7143 62.1258C59.3911 61.7967 58.8443 61.7967 58.4027 62.0145C57.309 62.778 55.9986 63.2195 54.6871 63.5486C54.2456 63.6551 53.9224 63.9842 53.8112 64.5311L53.4809 67.8123H50.859L50.5299 64.5311C50.5299 64.0955 50.0884 63.6551 49.6528 63.5486C48.3424 63.2195 47.1362 62.778 45.9372 62.0145C45.4956 61.7967 45.0612 61.7967 44.6197 62.1258L41.9966 64.202L40.2506 62.3436L42.3269 59.7205C42.6559 59.3914 42.6559 58.8445 42.4381 58.403C41.6675 57.3093 41.2331 55.9989 40.9029 54.6874C40.7975 54.2518 40.4684 53.9227 39.9216 53.8114L36.6403 53.4812V50.8593L39.9216 50.5302C40.356 50.5302 40.7975 50.0946 40.9029 49.6531C41.2331 48.3427 41.6675 47.1436 42.4381 45.9374C42.6559 45.4959 42.6559 45.0615 42.3269 44.62L40.2506 41.9981L42.1091 40.1396L44.731 42.2147C45.0612 42.5449 45.6081 42.5449 46.0425 42.3271C47.1362 41.5625 48.4537 41.1209 49.7653 40.7978C50.1997 40.6865 50.5299 40.3574 50.6412 39.8106L50.9643 36.5293H53.5934L53.9224 39.8106C53.9224 40.245 54.358 40.6865 54.7924 40.7978C56.1099 41.1209 57.309 41.5625 58.5152 42.3271C58.9496 42.5449 59.3911 42.5449 59.8267 42.2147L62.4487 40.1396L64.313 41.9981L62.2308 44.62C61.9018 44.9561 61.9018 45.4959 62.1255 45.9374C62.8902 47.0312 63.3246 48.3427 63.6548 49.6531C63.7661 50.0946 64.0952 50.4237 64.6421 50.5302L67.9174 50.8593V53.4812H67.812ZM69.0111 48.8896L65.5121 48.454C65.183 47.4727 64.8599 46.4843 64.313 45.4959L66.5005 42.6562C66.8236 42.2147 66.8236 41.5625 66.3892 41.2334L63.2192 38.0634C62.7777 37.629 62.2308 37.629 61.7964 37.9522L58.9496 40.1396C57.9683 39.5928 56.9799 39.1572 55.9986 38.9334L55.563 35.4356C55.4518 34.8887 55.0162 34.4531 54.4693 34.4531H49.9831C49.4362 34.4531 49.0006 34.8887 48.8893 35.4356L48.4537 38.9334C47.4653 39.2637 46.484 39.5928 45.4956 40.1396L42.6559 37.9522C42.2144 37.629 41.5622 37.629 41.2331 38.0634L38.0631 41.2334C37.6216 41.6749 37.6216 42.2147 37.9519 42.6562L40.1394 45.4959C39.5925 46.4843 39.151 47.4727 38.9332 48.454L35.4341 48.8896C34.8873 49.0009 34.4529 49.4365 34.4529 49.9833V54.4696C34.4529 55.0164 34.8873 55.452 35.4341 55.5633L38.9332 55.9989C39.2622 56.9861 39.5925 57.9686 40.1394 58.9499L37.9519 61.7967C37.6216 62.2311 37.6216 62.8904 38.0631 63.2195L41.2331 66.3895C41.6675 66.8298 42.2144 66.8298 42.6559 66.5007L45.4956 64.3133C46.484 64.8601 47.4653 65.2957 48.4537 65.5124L48.8893 69.0114C49.0006 69.5583 49.4362 69.9998 49.9831 69.9998H54.4693C55.0162 69.9998 55.4518 69.5583 55.563 69.0114L55.9986 65.5124C56.9799 65.1892 57.9683 64.8601 58.9496 64.3133L61.7964 66.5007C62.2308 66.8298 62.8902 66.8298 63.2192 66.3895L66.3892 63.2195C66.8236 62.778 66.8236 62.2311 66.5005 61.7967L64.313 58.9499C64.8599 57.9686 65.2955 56.9861 65.5121 55.9989L69.0111 55.5633C69.558 55.452 69.9995 55.0164 69.9995 54.4696V49.9833C69.9995 49.4365 69.558 48.8896 69.0111 48.8896Z"
            fill="#528BFF" />
    </g>
    <path
        d="M52.1706 57.4218C49.106 57.4218 46.7019 55.0165 46.7019 51.9531C46.7019 48.8896 49.106 46.4844 52.1706 46.4844C55.234 46.4844 57.6393 48.8896 57.6393 51.9531C57.6393 55.0165 55.234 57.4218 52.1706 57.4218ZM52.1706 44.2969C47.9069 44.2969 44.5144 47.6835 44.5144 51.9531C44.5144 56.2156 47.9069 59.6093 52.1706 59.6093C56.4331 59.6093 59.8268 56.2156 59.8268 51.9531C59.8268 47.7959 56.4331 44.2969 52.1706 44.2969Z"
        fill="#528BFF" />
    <mask id="mask2_1137_29778" style="mask-type:luminance" maskUnits="userSpaceOnUse" x="35" y="0" width="34"
        height="32">
        <path d="M35.909 0H68.3331V31.6665H35.909V0Z" fill="white" />
    </mask>
    <g mask="url(#mask2_1137_29778)">
        <path
            d="M38.4987 14.7655L41.3443 14.4365C41.7799 14.4365 42.2143 14.0009 42.3268 13.5605C42.5434 12.4668 42.9849 11.373 43.6372 10.3906C43.855 9.95614 43.855 9.51462 43.5318 9.07902L41.7799 6.89153L43.2027 5.46872L45.3902 7.22178C45.7193 7.54494 46.2662 7.54494 46.7018 7.32713C47.6831 6.67491 48.7768 6.23339 49.8706 6.01559C50.3121 5.90432 50.6411 5.58117 50.7465 5.02719L51.0767 2.18749H53.1518L53.4809 5.0343C53.4809 5.46872 53.9224 5.90432 54.358 6.01559C55.4517 6.23339 56.5455 6.67491 57.5268 7.32713C57.9683 7.54494 58.4027 7.54494 58.8442 7.22178L61.0317 5.46872L62.4486 6.89153L60.7026 9.07902C60.3736 9.40927 60.3736 9.95614 60.5902 10.3906C61.2495 11.379 61.6839 12.4727 61.9076 13.5664C62.0142 14.0009 62.3432 14.3299 62.8901 14.4365L65.7357 14.7655V16.8477L62.8901 17.1708C62.4545 17.1708 62.0142 17.6112 61.9076 18.0468C61.6839 19.1405 61.2495 20.2343 60.5902 21.2226C60.3736 21.6571 60.3736 22.0927 60.7026 22.533L62.4486 24.7217L61.0317 26.1445L58.8442 24.3914C58.4027 24.0624 57.9683 24.0624 57.5268 24.2802C56.5455 24.9383 55.4517 25.3739 54.358 25.5917C53.9224 25.703 53.5933 26.032 53.4809 26.5789L53.1518 29.4198H51.0767L50.7465 26.5789C50.7465 26.1386 50.3121 25.703 49.8706 25.5917C48.7768 25.3739 47.6831 24.9383 46.7018 24.2802C46.2662 24.0624 45.8246 24.0624 45.3902 24.3914L43.2027 26.1386L41.7799 24.7146L43.5259 22.5271C43.855 22.2039 43.855 21.6571 43.6372 21.2167C42.979 20.2343 42.5434 19.1405 42.3268 18.0468C42.2143 17.6112 41.8853 17.2821 41.3384 17.1708L38.4987 16.8418V14.7655ZM37.2925 18.9227L40.3559 19.2518C40.5737 20.1289 40.9028 20.8924 41.3443 21.7636L39.48 24.0624C39.1568 24.498 39.1568 25.1561 39.5924 25.4852L42.4381 28.3261C42.8737 28.7664 43.4205 28.7664 43.855 28.4373L46.2662 26.5789C47.0308 27.0145 47.9068 27.3436 48.7827 27.5614L49.1059 30.6248C49.2183 31.1717 49.6527 31.6073 50.1996 31.6073H54.2514C54.7983 31.6073 55.2339 31.1717 55.3452 30.6248L55.6683 27.5614C56.5455 27.3436 57.309 27.0145 58.1861 26.5789L60.5902 28.4373C61.0317 28.7664 61.6839 28.7664 62.0142 28.3261L64.8598 25.4852C65.2954 25.0448 65.2954 24.498 64.9652 24.0624L63.1079 21.6571C63.5483 20.8924 63.8714 20.0165 64.0951 19.1405L67.1526 18.8114C67.6995 18.7061 68.141 18.2646 68.141 17.7177V13.6718C68.141 13.1249 67.6995 12.6834 67.1526 12.578L64.0951 12.249C63.8714 11.373 63.5483 10.6084 63.1079 9.73242L64.9652 7.32713C65.2954 6.89153 65.2954 6.23339 64.8598 5.90432L62.0142 3.06343C61.5786 2.62309 61.0317 2.62309 60.5902 2.95216L57.9683 5.0343C57.2036 4.59278 56.3277 4.26371 55.4517 4.0459L55.1215 0.982475C55.1215 0.435603 54.687 0 54.1402 0H50.0943C49.5474 0 49.1059 0.435603 49.0005 0.982475L48.6715 4.0459C47.7955 4.26371 47.0308 4.59278 46.1549 5.0343L43.7496 3.16996C43.3081 2.83971 42.6559 2.83971 42.3268 3.28123L39.48 6.12804C39.0456 6.56246 39.0456 7.10933 39.3746 7.54494L41.2331 9.95614C40.7975 10.7196 40.4684 11.5968 40.2506 12.4668L37.1872 12.7959C36.6403 12.9071 36.1988 13.3427 36.1988 13.8896V17.9414C36.3112 18.3758 36.7456 18.8114 37.2925 18.9227Z"
            fill="#528BFF" />
    </g>
    <path
        d="M52.1706 10.9375C54.7925 10.9375 56.8746 13.0137 56.8746 15.6415C56.8746 18.2646 54.7925 20.3468 52.1706 20.3468C49.5475 20.3468 47.4654 18.2646 47.4654 15.6415C47.4654 13.0137 49.5475 10.9375 52.1706 10.9375ZM52.1706 22.4218C55.9987 22.4218 59.0621 19.3584 59.0621 15.5303C59.0621 11.7022 55.8863 8.75 52.1706 8.75C48.4538 8.75 45.2779 11.8134 45.2779 15.6415C45.2779 19.4696 48.3425 22.4218 52.1706 22.4218Z"
        fill="#528BFF" />
</svg>