<svg width="70" height="73" viewBox="0 0 70 73" fill="none" xmlns="http://www.w3.org/2000/svg">
    <path
        d="M37.0986 32.5053H35.6859C35.0294 32.5053 34.4961 33.0411 34.4961 33.7013C34.4961 34.3615 35.0294 34.896 35.6859 34.896H43.1007L27.6466 47.787L31.9982 37.6156C32.1558 37.2461 32.1189 36.8224 31.8984 36.4862C31.6779 36.1511 31.3047 35.9491 30.9044 35.9491H26.6058L39.9944 23.3217L37.0986 32.5053ZM43.1401 18.3001C42.6807 18.0106 42.0858 18.0698 41.6904 18.4417L22.7838 36.2731C22.4291 36.6093 22.3133 37.1279 22.4931 37.5848C22.6717 38.0406 23.1115 38.3399 23.5992 38.3399H29.0975L23.5056 51.4119C23.2876 51.9194 23.4452 52.5093 23.8862 52.8407C24.098 52.9996 24.3481 53.0784 24.5981 53.0784C24.8691 53.0784 25.1388 52.986 25.3593 52.8025L47.1555 34.6201C47.541 34.2987 47.6851 33.769 47.5151 33.2948C47.3439 32.8218 46.8968 32.5053 46.3955 32.5053H39.5965L43.6414 19.6734C43.804 19.1549 43.5983 18.5908 43.1401 18.3001Z"
        fill="#528BFF" />
    <path
        d="M6.89142 35.1382C6.89142 50.6995 19.4991 63.3601 34.9976 63.3601C50.4961 63.3601 63.105 50.6995 63.105 35.1382C63.105 22.5108 54.6543 11.3294 42.5528 7.94715C41.9185 7.76856 41.2632 8.14176 41.0871 8.77732C40.911 9.41411 41.2805 10.0718 41.9136 10.2492C52.989 13.3457 60.7241 23.5799 60.7241 35.1382C60.7241 49.3816 49.1831 60.9706 34.9976 60.9706C20.8121 60.9706 9.27106 49.3816 9.27106 35.1382C9.27106 21.6313 19.6481 10.514 32.8175 9.39933L32.3137 10.2258C31.9701 10.7899 32.1474 11.5252 32.7079 11.8689C32.9012 11.9884 33.1156 12.045 33.3274 12.045C33.7289 12.045 34.1194 11.8418 34.3448 11.4735L36.0125 8.73421C36.0162 8.72928 36.0187 8.72189 36.0211 8.71697C36.0445 8.67878 36.0655 8.63814 36.084 8.59749C36.0864 8.59256 36.0889 8.58887 36.0901 8.58394C36.1098 8.5396 36.1258 8.49157 36.1406 8.44353C36.1431 8.43244 36.1455 8.42259 36.148 8.4115C36.1579 8.37455 36.1652 8.33637 36.1714 8.29942C36.1739 8.28464 36.1763 8.27109 36.1776 8.25877C36.1825 8.21566 36.1862 8.17132 36.1862 8.12698C36.1874 8.12205 36.1874 8.11713 36.1874 8.1122C36.1874 8.11097 36.1874 8.11097 36.1874 8.11097C36.1874 8.0617 36.1837 8.01367 36.1788 7.96686C36.1763 7.95331 36.1751 7.941 36.1726 7.92868C36.1665 7.88926 36.1591 7.85231 36.1492 7.81413C36.1468 7.80428 36.1443 7.79319 36.1418 7.78211C36.1135 7.6848 36.0729 7.59242 36.0236 7.5062C36.0199 7.50128 36.0187 7.49635 36.0162 7.49142L34.3473 4.71887C34.0073 4.15475 33.2757 3.97246 32.7128 4.31364C32.1511 4.65482 31.9701 5.39014 32.31 5.95549L32.9333 6.99135C18.3955 8.05554 6.89142 20.2728 6.89142 35.1382Z"
        fill="#528BFF" />
    <mask id="mask0_1137_29685" style="mask-type:luminance" maskUnits="userSpaceOnUse" x="0" y="0" width="70"
        height="73">
        <path d="M0 0H70V72.8378H0V0Z" fill="white" />
    </mask>
    <g mask="url(#mask0_1137_29685)">
        <path
            d="M69.9913 35.1379C69.9913 15.7621 54.2933 0 34.9974 0C15.7016 0 0.00360107 15.7621 0.00360107 35.1379C0.00360107 50.7116 10.4028 64.599 25.2916 68.9062C25.926 69.0898 26.5837 68.7227 26.7648 68.0884C26.9471 67.4541 26.5825 66.7926 25.9506 66.6091C12.0755 62.595 2.38448 49.6535 2.38448 35.1379C2.38448 17.08 17.0146 2.39073 34.9974 2.39073C52.9803 2.39073 67.6104 17.08 67.6104 35.1379C67.6104 52.3781 54.2736 66.5488 37.4153 67.7952L37.8944 67.14C38.2836 66.6091 38.1691 65.8602 37.6394 65.4698C37.1086 65.0781 36.3659 65.1927 35.9766 65.7248L34.0379 68.3717C34.0355 68.3754 34.033 68.3803 34.0306 68.384C33.9973 68.432 33.9665 68.4813 33.9394 68.5343C33.9357 68.5417 33.932 68.549 33.9283 68.5564C33.8778 68.6599 33.8421 68.7745 33.8236 68.8939C33.8212 68.9038 33.8199 68.9149 33.8187 68.9247C33.8113 68.9764 33.8064 69.0282 33.8064 69.0799C33.8064 69.0848 33.8076 69.0898 33.8076 69.0947C33.8076 69.1033 33.8089 69.1107 33.8089 69.1206C33.8101 69.1723 33.8162 69.2253 33.8249 69.2757C33.8261 69.2844 33.8261 69.293 33.8286 69.3004C33.8396 69.3583 33.8532 69.4137 33.8717 69.4667C33.8754 69.4765 33.8791 69.4851 33.8815 69.4938C33.9025 69.5492 33.9259 69.6034 33.9542 69.6551C33.9554 69.6576 33.9567 69.66 33.9579 69.6625C33.9874 69.7142 34.0195 69.7623 34.0552 69.8091C34.0589 69.814 34.0614 69.8189 34.065 69.8226L36.0887 72.3858C36.324 72.6826 36.6713 72.8378 37.0224 72.8378C37.281 72.8378 37.5421 72.7528 37.7602 72.5792C38.2762 72.169 38.3624 71.4177 37.9535 70.9004L37.3943 70.1909C55.5755 68.9506 69.9913 53.7034 69.9913 35.1379Z"
            fill="#528BFF" />
    </g>
</svg>