<svg width="20" height="20" viewBox="0 0 20 20" fill="none" xmlns="http://www.w3.org/2000/svg">
    <path
        d="M7.36796 17.5C5.34609 17.5 3.46136 16.9119 1.875 15.8973C3.22187 15.9844 5.59879 15.7757 7.07724 14.3655C4.85317 14.2634 3.85016 12.5577 3.71934 11.8287C3.90831 11.9016 4.80956 11.9891 5.31834 11.785C2.75994 11.1435 2.36745 8.89833 2.45467 8.21311C2.93437 8.54843 3.74841 8.66506 4.06821 8.6359C1.68425 6.93015 2.54189 4.36422 2.96345 3.81022C4.67426 6.18042 7.23825 7.51161 10.4102 7.58565C10.3504 7.32335 10.3188 7.05026 10.3188 6.76978C10.3188 4.75682 11.9459 3.125 13.9529 3.125C15.0016 3.125 15.9465 3.57047 16.6098 4.28302C17.3106 4.11882 18.3652 3.73442 18.8808 3.402C18.6209 4.33507 17.8118 5.11343 17.3224 5.40192C17.3185 5.39207 17.3265 5.41174 17.3224 5.40192C17.7523 5.3369 18.9155 5.11336 19.375 4.8016C19.1478 5.32578 18.29 6.19733 17.5861 6.68526C17.717 12.4613 13.2978 17.5 7.36796 17.5Z"
        fill="#F5F5F6" />
</svg>